<?xml version="1.0" standalone="no"?><!DOCTYPE svg PUBLIC "-//W3C//DTD SVG 1.1//EN" "http://www.w3.org/Graphics/SVG/1.1/DTD/svg11.dtd"><svg t="1757166880161" class="icon" viewBox="0 0 1024 1024" version="1.1" xmlns="http://www.w3.org/2000/svg" p-id="9835" xmlns:xlink="http://www.w3.org/1999/xlink" width="256" height="256"><path d="M888.1024 692.7488C907.3024 718.3744 889.3056 755.2 857.6 755.2H166.4128c-31.4496 0-49.536-36.3008-30.848-62.016l140.3008-192.7424a38.08 38.08 0 0 1 61.7216 0l81.6768 112.2304L597.632 385.7152a37.952 37.952 0 0 1 60.416 0.6912L888.1152 692.736zM378.9824 424.448c-42.3424 0-76.7104-34.8288-76.7104-77.824S336.64 268.8 378.9824 268.8c42.3424 0 76.7104 34.8288 76.7104 77.824s-34.2912 77.824-76.7104 77.824z" fill="#B0B0B0" p-id="9836"></path></svg>